<svg width="32" height="33" viewBox="0 0 32 33" fill="none" xmlns="http://www.w3.org/2000/svg">
<rect y="0.71875" width="31.4417" height="31.4417" rx="4.49167" fill="white"/>
<path d="M24.8926 14.607H24.1389V14.5681H15.717V18.3112H21.0055C20.2339 20.4901 18.1608 22.0543 15.717 22.0543C12.6164 22.0543 10.1024 19.5403 10.1024 16.4397C10.1024 13.339 12.6164 10.8251 15.717 10.8251C17.1483 10.8251 18.4504 11.365 19.4418 12.247L22.0886 9.60017C20.4174 8.04259 18.1818 7.08203 15.717 7.08203C10.5493 7.08203 6.35938 11.2719 6.35938 16.4397C6.35938 21.6074 10.5493 25.7973 15.717 25.7973C20.8848 25.7973 25.0747 21.6074 25.0747 16.4397C25.0747 15.8122 25.0101 15.1998 24.8926 14.607Z" fill="#FFC107"/>
<path d="M7.4375 12.0842L10.512 14.3389C11.3438 12.2793 13.3585 10.8251 15.7162 10.8251C17.1475 10.8251 18.4496 11.365 19.441 12.247L22.0878 9.60017C20.4165 8.04259 18.181 7.08203 15.7162 7.08203C12.1219 7.08203 9.0049 9.11124 7.4375 12.0842Z" fill="#FF3D00"/>
<path d="M15.7213 25.7968C18.1383 25.7968 20.3346 24.8718 21.9951 23.3675L19.0989 20.9168C18.1594 21.6284 16.9916 22.0537 15.7213 22.0537C13.2873 22.0537 11.2207 20.5018 10.4422 18.3359L7.39062 20.687C8.93931 23.7175 12.0844 25.7968 15.7213 25.7968Z" fill="#4CAF50"/>
<path d="M24.8983 14.6091H24.1445V14.5703H15.7227V18.3134H21.0111C20.6406 19.36 19.9673 20.2626 19.0989 20.9199L19.1003 20.919L21.9965 23.3698C21.7916 23.556 25.0803 21.1207 25.0803 16.4418C25.0803 15.8144 25.0157 15.202 24.8983 14.6091Z" fill="#1976D2"/>
</svg>
